# xmcd CD database file
#
# Track frame offsets:
#	150
#	16212
#	34832
#	49172
#	69167
#	87082
#	105900
#	120612
#	137982
#	156212
#	169047
#	189825
#	205007
#	229752
#	245342
#	258817
#
# Disc length: 3545 seconds
#
# Revision: 2
# Processed by: cddbd v1.5.2PL0 Copyright (c) Steve Scherf et al.
# Submitted via: CDex 1.79
#
DISCID=c20dd710
DTITLE=Aubrey Haynie - A Man Must Carry On
DYEAR=2000
DGENRE=Bluegrass
TTITLE0=Creek's A Risin' (instrumental)
TTITLE1=Sam's Creek Blues (instrumental)
TTITLE2=Homesick and Lonesome (featuring Carl Jackson)
TTITLE3=Tennessee Hardwood (instrumental)
TTITLE4=Thonotosassa (instrumental)
TTITLE5=Can I Get A Amen (featuring Tim mensy)
TTITLE6=Buffalo Gals (instrumental)
TTITLE7=Song For Stacy (instrumental)
TTITLE8=Lakeland (instrumental)
TTITLE9=Happy Go Lucky (instrumental)
TTITLE10=Butcher Boy (featuring Tim O`Brien)
TTITLE11=Yeehaw Junction (instrumental)
TTITLE12=Eternal Blues (instrumental)
TTITLE13=A Man Must Carry On (featuring Ronnie Bowman and Dan Tyminski)
TTITLE14=Gone to Ferrum (instrumental)
TTITLE15=Maggie (instrumental)
EXTD=YEAR: 2000
EXTT0=
EXTT1=
EXTT2=
EXTT3=
EXTT4=
EXTT5=
EXTT6=
EXTT7=
EXTT8=
EXTT9=
EXTT10=
EXTT11=
EXTT12=
EXTT13=
EXTT14=
EXTT15=
PLAYORDER=
